<svg width="62" height="42" viewBox="0 0 62 42" fill="none" xmlns="http://www.w3.org/2000/svg">
<g clip-path="url(#clip0_345_2968)">
<path d="M17.7172 41.6491C14.334 41.6491 11.4818 41.0984 9.16078 39.9968C6.83972 38.856 5.06942 37.3807 3.84988 35.5711C2.66968 33.7614 2.04023 31.8338 1.96155 29.7881C1.92222 29.434 2.02057 29.1587 2.25661 28.962C2.53199 28.7259 2.84671 28.6079 3.20077 28.6079H8.68869C9.12143 28.6079 9.47549 28.7063 9.75087 28.903C10.0656 29.0603 10.3016 29.3554 10.459 29.7881C10.8524 30.9683 11.4032 31.9321 12.1113 32.6796C12.8587 33.427 13.7045 33.9778 14.6487 34.3319C15.6322 34.6859 16.655 34.863 17.7172 34.863C19.1335 34.863 20.412 34.5876 21.5529 34.0368C22.7331 33.4467 23.6772 32.5812 24.3854 31.4404C25.0935 30.2995 25.4475 28.903 25.4475 27.2507C25.4475 25.7951 25.1131 24.5362 24.4444 23.474C23.7756 22.4118 22.8511 21.5857 21.6709 20.9956C20.53 20.3662 19.2121 20.0514 17.7172 20.0514C16.6157 20.0514 15.7109 20.1891 15.0028 20.4645C14.2946 20.7399 13.6849 21.0546 13.1735 21.4087C12.7014 21.7627 12.2686 22.0775 11.8752 22.3528C11.5212 22.6282 11.1081 22.7659 10.636 22.7659H5.20711C4.85305 22.7659 4.53832 22.6479 4.26294 22.4118C4.02691 22.1365 3.90889 21.8217 3.90889 21.4677L5.97424 1.28627C6.01358 0.774849 6.1906 0.381449 6.50532 0.106071C6.82004 -0.169311 7.19378 -0.307001 7.62651 -0.307001H29.8143C30.2077 -0.307001 30.5421 -0.169311 30.8174 0.106071C31.0928 0.381449 31.2305 0.715839 31.2305 1.10924V5.06291C31.2305 5.45631 31.0928 5.7907 30.8174 6.06608C30.5421 6.34146 30.2077 6.47915 29.8143 6.47915H12.7604L11.8162 16.0978C12.5243 15.6257 13.4685 15.1733 14.6487 14.7405C15.8289 14.3078 17.4615 14.0914 19.5465 14.0914C21.4349 14.0914 23.2248 14.4062 24.9164 15.0356C26.6474 15.6257 28.1817 16.5108 29.5192 17.691C30.8568 18.8319 31.8993 20.2285 32.6468 21.8808C33.4336 23.4937 33.827 25.3427 33.827 27.4277C33.827 30.2995 33.1582 32.7976 31.8206 34.922C30.4831 37.0463 28.6144 38.6986 26.2147 39.8788C23.8149 41.059 20.9824 41.6491 17.7172 41.6491Z" fill="url(#paint0_linear_345_2968)"/>
<path d="M47.3756 11.4042C47.6676 10.4679 48.9928 10.4679 49.2848 11.4042L50.7313 16.0413C50.8616 16.459 51.2483 16.7435 51.6859 16.7435H56.4507C57.4095 16.7435 57.8187 17.9623 57.0542 18.5409L53.1301 21.5107C52.7938 21.7652 52.6533 22.2033 52.7789 22.6058L54.261 27.3575C54.5507 28.286 53.4785 29.0396 52.7029 28.4526L48.9337 25.6C48.5767 25.3299 48.0837 25.3299 47.7267 25.6L43.9575 28.4526C43.1819 29.0396 42.1097 28.286 42.3994 27.3575L43.8815 22.6058C44.0071 22.2033 43.8666 21.7652 43.5304 21.5107L39.6063 18.5409C38.8417 17.9623 39.2509 16.7435 40.2097 16.7435H44.9745C45.4121 16.7435 45.7989 16.459 45.9292 16.0413L47.3756 11.4042Z" fill="url(#paint1_linear_345_2968)"/>
</g>
<defs>
<linearGradient id="paint0_linear_345_2968" x1="18.1602" y1="40.375" x2="14.7614" y2="11.9025" gradientUnits="userSpaceOnUse">
<stop stop-color="#5FB56D"/>
<stop offset="1" stop-color="#FB8C3F"/>
</linearGradient>
<linearGradient id="paint1_linear_345_2968" x1="48.3302" y1="29.6172" x2="47.1889" y2="16.469" gradientUnits="userSpaceOnUse">
<stop stop-color="#5FB56D"/>
<stop offset="1" stop-color="#FB8C3F"/>
</linearGradient>
<clipPath id="clip0_345_2968">
<rect width="62" height="42" fill="white"/>
</clipPath>
</defs>
</svg>
