<svg width="87" height="87" viewBox="0 0 87 87" fill="none" xmlns="http://www.w3.org/2000/svg">
<path fill-rule="evenodd" clip-rule="evenodd" d="M40.6464 47.553C37.7479 50.023 37.7985 56.8997 37.8603 64.8767L37.8715 67.139L37.8771 68.0091C37.9108 75.5482 38.0176 81.9983 39.7982 84.8893C40.388 85.8492 41.5003 86.5509 42.9776 86.9719C43.3596 86.9832 43.7415 87 44.1291 87C47.7916 87 51.3473 86.5509 54.7457 85.7089C56.1557 85.0352 57.1724 84.2213 57.5207 83.3736C57.7285 82.8235 57.8465 81.8186 57.8465 80.5163C57.8465 75.2956 56.2961 65.2977 55.5546 60.4812L55.1783 57.9551L55.1052 57.4555L54.9985 56.7257C54.3694 52.4369 53.319 47.8337 45.5334 46.6324C43.3652 46.29 41.7699 46.6043 40.6464 47.553ZM26.8448 79.8988C27.1032 81.914 27.5133 83.4466 28.0526 84.4233C28.8558 84.7489 29.6759 85.0521 30.5073 85.3271C31.2375 84.6816 31.6982 82.8796 31.5465 78.4954C31.3274 72.2025 30.2433 63.9055 28.5581 64.001C26.7381 64.1132 26.0472 73.5778 26.8448 79.8988ZM63.8457 64.3322C61.8066 65.3426 62.5987 76.9348 64.6995 80.6285C64.9186 80.999 65.368 81.0608 65.8735 80.9766C67.4632 80.0223 68.9799 78.9557 70.4179 77.7993C70.6032 77.4231 70.7493 76.9797 70.856 76.4015C71.2492 74.3974 66.497 63.0523 63.8457 64.3322ZM0 43.1014C0 57.5397 6.6733 70.6756 17.6831 78.4954C17.9752 78.1585 18.6998 76.9011 18.8852 76.1601L18.9414 75.8626L19.1773 74.8072C20.0704 70.6194 20.2446 66.5159 19.7503 61.6601C19.4413 58.5221 18.9582 56.6471 18.5032 55.0135C18.0426 53.2396 17.6494 51.7071 17.6831 49.3269C17.7112 47.1769 18.155 45.6893 18.638 44.1063C19.1941 42.3043 19.8177 40.2666 19.9075 36.73C20.1435 29.8701 20.8569 28.1636 22.9184 26.1707C24.9687 24.1891 25.5978 23.3639 25.5978 21.9044C25.5978 20.4504 23.6599 17.1272 27.0695 13.6299C29.2659 11.3957 31.4004 10.5817 32.9339 10.5817C33.799 10.5817 34.4787 10.8399 34.8719 11.2497C35.9673 12.3893 35.6583 14.601 33.4732 17.5257C31.2881 20.4673 31.3555 21.7472 31.4847 22.4208C31.6195 23.1057 32.288 24.0207 33.5687 25.0143C34.5461 25.8058 35.6808 26.704 36.411 28.0008C37.7929 30.4539 38.5905 32.8004 39.6971 36.0395L40.0061 36.9601L40.1465 37.3194C41.225 39.8848 43.8314 40.7942 48.3252 40.7942C52.9932 40.7942 57.9476 37.7629 57.9476 35.4276C57.9476 33.1092 56.9814 32.8229 56.9814 30.83C56.9814 28.8372 59.9754 23.0888 64.4917 23.0888C66.7947 23.0888 67.9912 24.7505 66.879 27.0465C65.7893 29.32 63.5817 32.5647 63.5817 33.9961C63.5817 36.6458 67.5475 34.5968 70.0359 32.5647C72.5693 30.5269 73.1254 29.9599 74.8667 26.9173C75.9228 25.0368 77.4338 24.6775 78.4337 25.1715C79.5459 25.7216 80.2481 27.3552 79.2426 29.6905C78.4562 31.5037 76.316 33.8053 74.0635 36.2472C71.0414 39.4975 67.6317 43.1912 67.6317 45.5602C67.6317 57.6239 74.4679 68.1494 75.2599 69.3058C76.0295 70.451 77.2697 70.8877 77.5 71C83.8924 63.5339 86.9551 53.8291 87 43.2867V42.9106L86.9888 42.1078C86.4607 18.7607 67.1936 0 43.5 0C19.475 0 0 19.2997 0 43.1014Z" fill="#F14635"/>
</svg>
