<svg width="62" height="41" viewBox="0 0 62 41" fill="none" xmlns="http://www.w3.org/2000/svg">
<path d="M31 0C12.4 0 0.407682 19.2868 0.407682 19.2868V19.3429C0.170191 19.6767 0 20.0607 0 20.5C0 20.8938 0.14071 21.2406 0.335026 21.553V21.6171C0.335026 21.6171 10.3333 41 31 41C51.6667 41 61.665 21.6171 61.665 21.6171V21.553C61.8593 21.2406 62 20.8938 62 20.5C62 20.0607 61.8298 19.6767 61.5923 19.3429V19.2868C61.5923 19.2868 49.6 0 31 0ZM31 6.15C38.9897 6.15 45.4667 12.5747 45.4667 20.5C45.4667 28.4253 38.9897 34.85 31 34.85C23.0103 34.85 16.5333 28.4253 16.5333 20.5C16.5333 12.5747 23.0103 6.15 31 6.15ZM31 14.35C27.5755 14.35 24.8 17.1031 24.8 20.5C24.8 23.8968 27.5755 26.65 31 26.65C34.4245 26.65 37.2 23.8968 37.2 20.5C37.2 17.1031 34.4245 14.35 31 14.35Z" fill="url(#paint0_linear_288_91)"/>
<defs>
<linearGradient id="paint0_linear_288_91" x1="31" y1="35.875" x2="29.7726" y2="13.6029" gradientUnits="userSpaceOnUse">
<stop stop-color="#5FB56D"/>
<stop offset="1" stop-color="#FB8C3F"/>
</linearGradient>
</defs>
</svg>
