<svg width="21" height="21" viewBox="0 0 21 21" fill="none" xmlns="http://www.w3.org/2000/svg">
<path d="M6 0.375C2.89838 0.375 0.375 2.89838 0.375 6V15C0.375 18.1016 2.89838 20.625 6 20.625H15C18.1016 20.625 20.625 18.1016 20.625 15V6C20.625 2.89838 18.1016 0.375 15 0.375H6ZM6 2.625H15C16.8608 2.625 18.375 4.13925 18.375 6V15C18.375 16.8608 16.8608 18.375 15 18.375H6C4.13925 18.375 2.625 16.8608 2.625 15V6C2.625 4.13925 4.13925 2.625 6 2.625ZM16.125 3.75C15.8266 3.75 15.5405 3.86853 15.3295 4.0795C15.1185 4.29048 15 4.57663 15 4.875C15 5.17337 15.1185 5.45952 15.3295 5.6705C15.5405 5.88147 15.8266 6 16.125 6C16.4234 6 16.7095 5.88147 16.9205 5.6705C17.1315 5.45952 17.25 5.17337 17.25 4.875C17.25 4.57663 17.1315 4.29048 16.9205 4.0795C16.7095 3.86853 16.4234 3.75 16.125 3.75ZM10.5 4.875C7.39838 4.875 4.875 7.39838 4.875 10.5C4.875 13.6016 7.39838 16.125 10.5 16.125C13.6016 16.125 16.125 13.6016 16.125 10.5C16.125 7.39838 13.6016 4.875 10.5 4.875ZM10.5 7.125C12.3608 7.125 13.875 8.63925 13.875 10.5C13.875 12.3608 12.3608 13.875 10.5 13.875C8.63925 13.875 7.125 12.3608 7.125 10.5C7.125 8.63925 8.63925 7.125 10.5 7.125Z" fill="#555967"/>
</svg>
