<svg width="110" height="101" viewBox="0 0 110 101" fill="none" xmlns="http://www.w3.org/2000/svg">
<path fill-rule="evenodd" clip-rule="evenodd" d="M2.46757 44.5085L32.5197 4.03822C34.4062 1.49771 37.3839 0 40.5483 0H50.3845C58.3611 0 63.1271 8.88091 58.7177 15.5279L39.2038 44.9445C36.9721 48.3086 36.9822 52.6847 39.2292 56.0386L58.5891 84.9339C63.0406 91.5779 58.2788 100.5 50.2814 100.5H40.5184C37.3708 100.5 34.407 99.0181 32.5184 96.5L2.49609 56.4702C-0.159978 52.9288 -0.171584 48.0625 2.46757 44.5085ZM51.4676 44.5085L81.5197 4.03822C83.4062 1.49771 86.3839 0 89.5483 0H99.3845C107.361 0 112.127 8.88091 107.718 15.5279L88.2038 44.9445C85.9721 48.3086 85.9822 52.6847 88.2292 56.0386L107.589 84.9339C112.041 91.5779 107.279 100.5 99.2814 100.5H89.5184C86.3708 100.5 83.407 99.0181 81.5184 96.5L51.4961 56.4702C48.84 52.9288 48.8284 48.0625 51.4676 44.5085Z" fill="url(#paint0_linear_221_2182)"/>
<defs>
<linearGradient id="paint0_linear_221_2182" x1="112.224" y1="50.25" x2="46.5748" y2="50.25" gradientUnits="userSpaceOnUse">
<stop stop-color="#207953"/>
<stop offset="0.6118" stop-color="#E78A41"/>
<stop offset="1" stop-color="#FF8C3F"/>
</linearGradient>
</defs>
</svg>
